<?xml version="1.0" encoding="utf-8"?>
<!-- Generator: Adobe Illustrator 18.1.0, SVG Export Plug-In . SVG Version: 6.00 Build 0)  -->
<!DOCTYPE svg PUBLIC "-//W3C//DTD SVG 1.1//EN" "http://www.w3.org/Graphics/SVG/1.1/DTD/svg11.dtd">
<svg version="1.1" id="Layer_1" xmlns="http://www.w3.org/2000/svg" xmlns:xlink="http://www.w3.org/1999/xlink" x="0px" y="0px"
	 viewBox="0 216 792 792" enable-background="new 0 216 792 792" xml:space="preserve">
<g id="Layer_2" display="none">
	
		<linearGradient id="SVGID_1_" gradientUnits="userSpaceOnUse" x1="-264.8" y1="678.9" x2="525.3" y2="678.9" gradientTransform="matrix(3.3333 0 0 -3.3333 0 4296)">
		<stop  offset="0" style="stop-color:#E6E6E6"/>
		<stop  offset="0.5" style="stop-color:#ECF0F1"/>
		<stop  offset="1" style="stop-color:#F2F2F2"/>
	</linearGradient>
	<rect x="-882.7" y="-9.7" display="inline" fill="url(#SVGID_1_)" width="2633.7" height="4085.3"/>
</g>
<g id="Layer_1_1_">
	<g>
		<circle fill="#3498DB" cx="396" cy="612" r="396"/>
		<g>
			<path fill="#1B2630" d="M514,515.3C584.3,610,654,692,721.3,782.7c-39.3-36-79-62.7-122.3-102.3c-3.3,7-6.3,12.3-10,18
				c-12,19-27.3,33-50.3,34.7c-7.7,0.3-16.3-2-23.7-5.3c-15-6.7-29.3-14.7-43.7-22.7c-19.7-10.7-40-19.3-63-16.3
				c-13,1.7-25.7,4-38.3,6c-21,3.3-40.7,0.3-56-15.7c-13.3-13.7-26.3-27.7-39.7-41.3c-22.7-23.3-51-28.7-82.3-26
				c-22,2-36,3.7-59,14.3c-22,12-44,20-62.7,30c68.3-76.7,138.3-143,209-222.3c7.7,12,15.7,24.3,23.3,36c29.3,45.3,58,91.7,92,134
				c3,3.7,6.3,7,9.7,10.7c4,4.3,8,5,12.7,0c27-27.7,54-55,81-82.3C503.7,526.7,508.7,521,514,515.3z"/>
			<path fill="#34495E" d="M560,565.3c-13,8-28,12.7-44.3,12.7c-21,0-40-7.7-54.7-20.3c-14.7,15-29.3,29.7-44,44.7
				c-4.7,5-8.3,4.3-12.7,0c-3.3-3.3-6.7-7-9.7-10.7c-25-31-47-64.3-68.7-97.7c-13.7,9.7-30.3,15-48,15c-22,0-42-8.3-57-22.3
				C170,543.7,119.7,600,70.7,655c18.7-10,40.7-22,62.7-34c18.7-10.3,37-20.7,59-22.3c31-2.7,59.3,2.7,82.3,26
				c13.3,13.7,26.3,27.7,39.7,41.3c15.7,16,35,19,56,15.7c12.7-2,25.7-4.3,38.3-6c23-3,43.3,5.7,63,16.3c14.3,7.7,28.7,16,43.7,22.7
				c7.3,3.3,15.7,6,23.7,5.3c23-1.3,38.7-14.7,49-34.7c2.7-5.3,5.3-11,8.3-18C639.7,707,682,746,721.3,782
				C668.7,711.7,614.7,638.7,560,565.3z"/>
			<path d="M326,494c-8-12-15.7-24.3-23.3-36.3c-7.7-12-15.3-24-23.3-36C260,443.3,240.3,465,221,487c15,13.7,35,22.3,57,22.3
				C296,509,312.3,503.3,326,494z"/>
			<path fill="#ECF0F1" d="M326,494c-8-12-15.7-24.3-23.3-36.3c-7.7-12-15.3-24-23.3-36C260,443.3,240.3,465,221,487
				c15,13.7,35,22.3,57,22.3C296,509,312.3,503.3,326,494z"/>
			<path d="M560,565.3c-15.3-20.7-30.7-41.3-46-62.3c-5.3,5.7-10.3,11.7-16,17c-12.3,12.7-24.7,25-37,37.7
				c14.7,12.7,33.7,20.3,54.7,20.3C532,578,547.3,573.3,560,565.3z"/>
			<path fill="#ECF0F1" d="M560,565.3c-15.3-20.7-30.7-41.3-46-62.3c-5.3,5.7-10.3,11.7-16,17c-12.3,12.7-24.7,25-37,37.7
				c14.7,12.7,33.7,20.3,54.7,20.3C532,578,547.3,573.3,560,565.3z"/>
		</g>
	</g>
</g>
</svg>
